<svg width="23" height="24" viewBox="0 0 23 24" fill="none" xmlns="http://www.w3.org/2000/svg">
<mask id="path-1-inside-1_112_49" fill="white">
<path fill-rule="evenodd" clip-rule="evenodd" d="M6.67219 23.4815L22.5186 23.4815L15.8464 16.8093L3.62396e-05 16.8093L6.67219 23.4815ZM15.8464 16.8093L15.8464 0.962961L22.5186 7.63511L22.5186 23.4815L15.8464 16.8093Z"/>
</mask>
<path fill-rule="evenodd" clip-rule="evenodd" d="M6.67219 23.4815L22.5186 23.4815L15.8464 16.8093L3.62396e-05 16.8093L6.67219 23.4815ZM15.8464 16.8093L15.8464 0.962961L22.5186 7.63511L22.5186 23.4815L15.8464 16.8093Z" fill="black"/>
<path d="M22.5186 23.4815V24.4815H24.9328L23.2257 22.7744L22.5186 23.4815ZM6.67219 23.4815L5.96508 24.1886L6.25798 24.4815L6.67219 24.4815V23.4815ZM15.8464 16.8093L16.5535 16.1022L16.2606 15.8093H15.8464V16.8093ZM3.62396e-05 16.8093V15.8093L-2.41418 15.8093L-0.707071 17.5164L3.62396e-05 16.8093ZM15.8464 0.962961L16.5535 0.255854L14.8464 -1.45125V0.962961H15.8464ZM15.8464 16.8093H14.8464V17.2235L15.1393 17.5164L15.8464 16.8093ZM22.5186 7.63511H23.5186V7.2209L23.2257 6.92801L22.5186 7.63511ZM22.5186 23.4815L21.8115 24.1886L23.5186 25.8957V23.4815H22.5186ZM22.5186 22.4815L6.67219 22.4815V24.4815L22.5186 24.4815V22.4815ZM15.1393 17.5164L21.8114 24.1886L23.2257 22.7744L16.5535 16.1022L15.1393 17.5164ZM3.62396e-05 17.8093L15.8464 17.8093L15.8464 15.8093L3.62396e-05 15.8093V17.8093ZM7.3793 22.7744L0.707143 16.1022L-0.707071 17.5164L5.96508 24.1886L7.3793 22.7744ZM14.8464 0.962961L14.8464 16.8093H16.8464L16.8464 0.962961H14.8464ZM23.2257 6.92801L16.5535 0.255854L15.1393 1.67007L21.8115 8.34222L23.2257 6.92801ZM23.5186 23.4815L23.5186 7.63511H21.5186L21.5186 23.4815H23.5186ZM15.1393 17.5164L21.8115 24.1886L23.2257 22.7744L16.5535 16.1022L15.1393 17.5164Z" fill="black" mask="url(#path-1-inside-1_112_49)"/>
</svg>
